<mxfile host="app.diagrams.net" modified="2021-07-01T10:37:40.783Z" agent="5.0 (Windows NT 10.0; Win64; x64) AppleWebKit/537.36 (KHTML, like Gecko) Chrome/91.0.4472.124 Safari/537.36" etag="Clc2ou9QkVEumNycoCHR" version="14.8.2" type="github">
  <diagram id="jHRqcZblm4bPHYdlKkVl" name="Page-1">
    <mxGraphModel dx="1422" dy="762" grid="1" gridSize="10" guides="1" tooltips="1" connect="1" arrows="1" fold="1" page="1" pageScale="1" pageWidth="827" pageHeight="1169" math="0" shadow="0">
      <root>
        <mxCell id="0" />
        <mxCell id="1" parent="0" />
        <mxCell id="fAAjsDxizD4yE1ICwDAj-9" value="Parcel land use files" style="rounded=1;whiteSpace=wrap;html=1;dashed=1;verticalAlign=top;" vertex="1" parent="1">
          <mxGeometry x="190" y="120" width="120" height="260" as="geometry" />
        </mxCell>
        <mxCell id="fAAjsDxizD4yE1ICwDAj-5" value="BPS" style="shape=image;html=1;verticalAlign=top;verticalLabelPosition=bottom;labelBackgroundColor=#ffffff;imageAspect=0;aspect=fixed;image=https://cdn1.iconfinder.com/data/icons/feather-2/24/file-text-128.png" vertex="1" parent="1">
          <mxGeometry x="230" y="150" width="40" height="40" as="geometry" />
        </mxCell>
        <mxCell id="fAAjsDxizD4yE1ICwDAj-6" value="CS" style="shape=image;html=1;verticalAlign=top;verticalLabelPosition=bottom;labelBackgroundColor=#ffffff;imageAspect=0;aspect=fixed;image=https://cdn1.iconfinder.com/data/icons/feather-2/24/file-text-128.png" vertex="1" parent="1">
          <mxGeometry x="230" y="230" width="40" height="40" as="geometry" />
        </mxCell>
        <mxCell id="fAAjsDxizD4yE1ICwDAj-7" value="ES" style="shape=image;html=1;verticalAlign=top;verticalLabelPosition=bottom;labelBackgroundColor=#ffffff;imageAspect=0;aspect=fixed;image=https://cdn1.iconfinder.com/data/icons/feather-2/24/file-text-128.png" vertex="1" parent="1">
          <mxGeometry x="230" y="310" width="40" height="40" as="geometry" />
        </mxCell>
        <mxCell id="fAAjsDxizD4yE1ICwDAj-12" style="edgeStyle=orthogonalEdgeStyle;rounded=0;orthogonalLoop=1;jettySize=auto;html=1;exitX=1;exitY=0.5;exitDx=0;exitDy=0;" edge="1" parent="1" source="fAAjsDxizD4yE1ICwDAj-10" target="fAAjsDxizD4yE1ICwDAj-5">
          <mxGeometry relative="1" as="geometry">
            <Array as="points">
              <mxPoint x="180" y="250" />
              <mxPoint x="180" y="170" />
            </Array>
          </mxGeometry>
        </mxCell>
        <mxCell id="fAAjsDxizD4yE1ICwDAj-13" style="edgeStyle=orthogonalEdgeStyle;rounded=0;orthogonalLoop=1;jettySize=auto;html=1;" edge="1" parent="1" source="fAAjsDxizD4yE1ICwDAj-10" target="fAAjsDxizD4yE1ICwDAj-6">
          <mxGeometry relative="1" as="geometry" />
        </mxCell>
        <mxCell id="fAAjsDxizD4yE1ICwDAj-15" style="edgeStyle=orthogonalEdgeStyle;rounded=0;orthogonalLoop=1;jettySize=auto;html=1;entryX=0;entryY=0.5;entryDx=0;entryDy=0;" edge="1" parent="1" source="fAAjsDxizD4yE1ICwDAj-10" target="fAAjsDxizD4yE1ICwDAj-7">
          <mxGeometry relative="1" as="geometry" />
        </mxCell>
        <mxCell id="fAAjsDxizD4yE1ICwDAj-10" value="Data Warehouse" style="rounded=1;whiteSpace=wrap;html=1;verticalAlign=middle;" vertex="1" parent="1">
          <mxGeometry x="10" y="220" width="120" height="60" as="geometry" />
        </mxCell>
        <mxCell id="fAAjsDxizD4yE1ICwDAj-17" value="Compatibility matrix" style="shape=image;html=1;verticalAlign=top;verticalLabelPosition=bottom;labelBackgroundColor=#ffffff;imageAspect=0;aspect=fixed;image=https://cdn1.iconfinder.com/data/icons/feather-2/24/file-text-128.png" vertex="1" parent="1">
          <mxGeometry x="230" y="20" width="40" height="40" as="geometry" />
        </mxCell>
        <mxCell id="fAAjsDxizD4yE1ICwDAj-18" value="LUX" style="rounded=1;whiteSpace=wrap;html=1;verticalAlign=top;" vertex="1" parent="1">
          <mxGeometry x="400" y="40" width="160" height="340" as="geometry" />
        </mxCell>
        <mxCell id="fAAjsDxizD4yE1ICwDAj-19" value="" style="shape=image;verticalLabelPosition=bottom;labelBackgroundColor=#ffffff;verticalAlign=top;aspect=fixed;imageAspect=0;image=https://upload.wikimedia.org/wikipedia/commons/thumb/e/ee/.NET_Core_Logo.svg/2048px-.NET_Core_Logo.svg.png;" vertex="1" parent="1">
          <mxGeometry x="465" y="69" width="30" height="30" as="geometry" />
        </mxCell>
        <mxCell id="fAAjsDxizD4yE1ICwDAj-22" value="" style="edgeStyle=orthogonalEdgeStyle;rounded=0;orthogonalLoop=1;jettySize=auto;html=1;" edge="1" parent="1" source="fAAjsDxizD4yE1ICwDAj-20" target="fAAjsDxizD4yE1ICwDAj-21">
          <mxGeometry relative="1" as="geometry" />
        </mxCell>
        <mxCell id="fAAjsDxizD4yE1ICwDAj-20" value="Load compatibility matrix file" style="rounded=1;whiteSpace=wrap;html=1;verticalAlign=middle;" vertex="1" parent="1">
          <mxGeometry x="420" y="115" width="120" height="40" as="geometry" />
        </mxCell>
        <mxCell id="fAAjsDxizD4yE1ICwDAj-24" value="" style="edgeStyle=orthogonalEdgeStyle;rounded=0;orthogonalLoop=1;jettySize=auto;html=1;" edge="1" parent="1" source="fAAjsDxizD4yE1ICwDAj-21" target="fAAjsDxizD4yE1ICwDAj-23">
          <mxGeometry relative="1" as="geometry" />
        </mxCell>
        <mxCell id="fAAjsDxizD4yE1ICwDAj-21" value="Load land use files" style="rounded=1;whiteSpace=wrap;html=1;verticalAlign=middle;" vertex="1" parent="1">
          <mxGeometry x="420" y="170" width="120" height="40" as="geometry" />
        </mxCell>
        <mxCell id="fAAjsDxizD4yE1ICwDAj-26" value="" style="edgeStyle=orthogonalEdgeStyle;rounded=0;orthogonalLoop=1;jettySize=auto;html=1;" edge="1" parent="1" source="fAAjsDxizD4yE1ICwDAj-23" target="fAAjsDxizD4yE1ICwDAj-25">
          <mxGeometry relative="1" as="geometry" />
        </mxCell>
        <mxCell id="fAAjsDxizD4yE1ICwDAj-23" value="Identify conflicts" style="rounded=1;whiteSpace=wrap;html=1;verticalAlign=middle;" vertex="1" parent="1">
          <mxGeometry x="420" y="222" width="120" height="40" as="geometry" />
        </mxCell>
        <mxCell id="fAAjsDxizD4yE1ICwDAj-28" value="" style="edgeStyle=orthogonalEdgeStyle;rounded=0;orthogonalLoop=1;jettySize=auto;html=1;" edge="1" parent="1" source="fAAjsDxizD4yE1ICwDAj-25" target="fAAjsDxizD4yE1ICwDAj-27">
          <mxGeometry relative="1" as="geometry" />
        </mxCell>
        <mxCell id="fAAjsDxizD4yE1ICwDAj-25" value="Determine BPS reductions" style="rounded=1;whiteSpace=wrap;html=1;verticalAlign=middle;" vertex="1" parent="1">
          <mxGeometry x="420" y="273" width="120" height="40" as="geometry" />
        </mxCell>
        <mxCell id="fAAjsDxizD4yE1ICwDAj-32" style="edgeStyle=orthogonalEdgeStyle;rounded=0;orthogonalLoop=1;jettySize=auto;html=1;entryX=0;entryY=0.5;entryDx=0;entryDy=0;" edge="1" parent="1" source="fAAjsDxizD4yE1ICwDAj-27" target="fAAjsDxizD4yE1ICwDAj-31">
          <mxGeometry relative="1" as="geometry" />
        </mxCell>
        <mxCell id="fAAjsDxizD4yE1ICwDAj-27" value="Create reduction output" style="rounded=1;whiteSpace=wrap;html=1;verticalAlign=middle;" vertex="1" parent="1">
          <mxGeometry x="420" y="327" width="120" height="40" as="geometry" />
        </mxCell>
        <mxCell id="fAAjsDxizD4yE1ICwDAj-29" style="edgeStyle=orthogonalEdgeStyle;rounded=0;orthogonalLoop=1;jettySize=auto;html=1;entryX=0;entryY=0.5;entryDx=0;entryDy=0;" edge="1" parent="1" source="fAAjsDxizD4yE1ICwDAj-17" target="fAAjsDxizD4yE1ICwDAj-20">
          <mxGeometry relative="1" as="geometry" />
        </mxCell>
        <mxCell id="fAAjsDxizD4yE1ICwDAj-30" style="edgeStyle=orthogonalEdgeStyle;rounded=0;orthogonalLoop=1;jettySize=auto;html=1;" edge="1" parent="1" source="fAAjsDxizD4yE1ICwDAj-9" target="fAAjsDxizD4yE1ICwDAj-21">
          <mxGeometry relative="1" as="geometry" />
        </mxCell>
        <mxCell id="fAAjsDxizD4yE1ICwDAj-31" value="BPS reductions" style="shape=image;html=1;verticalAlign=top;verticalLabelPosition=bottom;labelBackgroundColor=#ffffff;imageAspect=0;aspect=fixed;image=https://cdn1.iconfinder.com/data/icons/feather-2/24/file-text-128.png" vertex="1" parent="1">
          <mxGeometry x="610" y="327" width="40" height="40" as="geometry" />
        </mxCell>
      </root>
    </mxGraphModel>
  </diagram>
</mxfile>
